<svg width="146" height="36" viewBox="0 0 146 36" fill="none" xmlns="http://www.w3.org/2000/svg">
<g clip-path="url(#clip0_581_2210)">
<circle cx="16" cy="18" r="16" fill="#883DCF"/>
<mask id="path-2-inside-1_581_2210" fill="white">
<path d="M16 29C18.6652 29 21.3304 26.8953 23.0607 25.179C23.4599 24.7831 22.9792 24.2122 22.4822 24.4749C20.6013 25.469 18.0181 26.6 16 26.6C13.9819 26.6 11.3987 25.469 9.5178 24.4749C9.02076 24.2122 8.54012 24.7831 8.93926 25.179C10.6696 26.8953 13.3348 29 16 29Z"/>
</mask>
<path d="M23.0607 25.179L25.1734 27.3089V27.3089L23.0607 25.179ZM8.93926 25.179L6.82658 27.3089H6.82658L8.93926 25.179ZM9.5178 24.4749L10.9197 21.8226L10.9197 21.8226L9.5178 24.4749ZM22.4822 24.4749L21.0803 21.8226L21.0803 21.8226L22.4822 24.4749ZM20.948 23.0491C20.1783 23.8126 19.2652 24.5953 18.3201 25.1712C17.3491 25.7627 16.5672 26 16 26V32C18.098 32 19.9813 31.1849 21.4419 30.2951C22.9282 29.3895 24.2129 28.2616 25.1734 27.3089L20.948 23.0491ZM16 26C15.4328 26 14.6509 25.7627 13.6799 25.1712C12.7348 24.5953 11.8217 23.8126 11.052 23.0491L6.82658 27.3089C7.78708 28.2616 9.07177 29.3895 10.5581 30.2951C12.0187 31.1849 13.902 32 16 32V26ZM8.11593 27.1272C9.1314 27.6639 10.3827 28.2629 11.6934 28.7336C12.967 29.1911 14.4921 29.6 16 29.6V23.6C15.4899 23.6 14.7143 23.4434 13.7216 23.0868C12.7658 22.7436 11.7851 22.28 10.9197 21.8226L8.11593 27.1272ZM16 29.6C17.5079 29.6 19.033 29.1911 20.3066 28.7336C21.6173 28.2629 22.8686 27.6639 23.8841 27.1272L21.0803 21.8226C20.2149 22.28 19.2342 22.7436 18.2785 23.0868C17.2857 23.4434 16.5101 23.6 16 23.6V29.6ZM25.1734 27.3089C25.7674 26.7197 26.1776 25.8995 26.2071 24.9593C26.2356 24.0551 25.905 23.2526 25.4152 22.663C24.4114 21.4547 22.6321 21.0024 21.0803 21.8226L23.8841 27.1272C22.8293 27.6847 21.5389 27.3865 20.7999 26.4969C20.4425 26.0667 20.1883 25.4648 20.2101 24.7708C20.2331 24.0407 20.5536 23.4403 20.948 23.0491L25.1734 27.3089ZM11.052 23.0491C11.4464 23.4403 11.7669 24.0407 11.7899 24.7708C11.8117 25.4648 11.5575 26.0667 11.2001 26.4969C10.4611 27.3865 9.17068 27.6847 8.11593 27.1272L10.9197 21.8226C9.36787 21.0024 7.5886 21.4547 6.58483 22.663C6.09504 23.2526 5.76443 24.0551 5.79286 24.9593C5.82241 25.8995 6.23259 26.7197 6.82658 27.3089L11.052 23.0491Z" fill="white" mask="url(#path-2-inside-1_581_2210)"/>
<path d="M21.7117 11.316C21.3918 10.9939 21.3918 10.4776 21.7117 10.1555L23.4302 8.02657L23.4302 7.98961C23.8655 7.55891 24.5713 7.55891 25.0067 7.98961C25.442 8.42031 25.442 9.11861 25.0067 9.54931L22.9819 11.316L22.9063 11.383C22.7482 11.5079 22.5511 11.5769 22.3468 11.5769C22.1085 11.5769 21.88 11.483 21.7117 11.316ZM8.6665 17.1852C8.6665 15.2894 9.4277 13.4713 10.7826 12.1308C12.1376 10.7903 13.9753 10.0372 15.8914 10.0372C19.8817 10.0372 23.1164 13.2375 23.1164 17.1852C23.1164 21.133 19.8817 24.3333 15.8914 24.3333C11.9012 24.3333 8.6665 21.133 8.6665 17.1852Z" fill="white"/>
</g>
<path d="M49.012 9.408C50.316 9.408 51.476 9.672 52.492 10.2C53.516 10.72 54.34 11.432 54.964 12.336C55.596 13.24 55.968 14.26 56.08 15.396H52.408C52.296 14.796 52.092 14.264 51.796 13.8C51.5 13.328 51.112 12.96 50.632 12.696C50.152 12.424 49.576 12.288 48.904 12.288C48.096 12.288 47.4 12.484 46.816 12.876C46.232 13.268 45.784 13.9 45.472 14.772C45.16 15.644 45.004 16.796 45.004 18.228C45.004 20.388 45.348 21.952 46.036 22.92C46.732 23.88 47.688 24.36 48.904 24.36C49.576 24.36 50.152 24.208 50.632 23.904C51.112 23.592 51.5 23.184 51.796 22.68C52.092 22.168 52.296 21.608 52.408 21H56.08C55.976 21.824 55.776 22.612 55.48 23.364C55.184 24.108 54.764 24.772 54.22 25.356C53.676 25.94 52.976 26.4 52.12 26.736C51.264 27.072 50.228 27.24 49.012 27.24C47.396 27.24 46 26.864 44.824 26.112C43.648 25.36 42.74 24.304 42.1 22.944C41.468 21.584 41.152 19.996 41.152 18.18C41.152 16.356 41.468 14.792 42.1 13.488C42.732 12.176 43.636 11.168 44.812 10.464C45.988 9.76 47.388 9.408 49.012 9.408ZM66.1426 27.24C64.5026 27.24 63.0826 26.884 61.8826 26.172C60.6906 25.452 59.7666 24.432 59.1106 23.112C58.4626 21.784 58.1386 20.2 58.1386 18.36C58.1386 16.512 58.4666 14.92 59.1226 13.584C59.7866 12.248 60.7186 11.22 61.9186 10.5C63.1186 9.772 64.5266 9.408 66.1426 9.408C67.7506 9.408 69.1506 9.768 70.3426 10.488C71.5346 11.208 72.4546 12.236 73.1026 13.572C73.7586 14.908 74.0866 16.504 74.0866 18.36C74.0866 20.192 73.7626 21.772 73.1146 23.1C72.4746 24.428 71.5586 25.452 70.3666 26.172C69.1746 26.884 67.7666 27.24 66.1426 27.24ZM66.1426 24.36C66.9906 24.36 67.7226 24.16 68.3386 23.76C68.9626 23.352 69.4426 22.712 69.7786 21.84C70.1146 20.96 70.2826 19.816 70.2826 18.408C70.2826 16.96 70.1106 15.788 69.7666 14.892C69.4306 13.996 68.9506 13.34 68.3266 12.924C67.7106 12.5 66.9826 12.288 66.1426 12.288C65.3026 12.288 64.5706 12.5 63.9466 12.924C63.3226 13.34 62.8386 14 62.4946 14.904C62.1506 15.8 61.9786 16.968 61.9786 18.408C61.9786 19.824 62.1506 20.968 62.4946 21.84C62.8386 22.712 63.3226 23.352 63.9466 23.76C64.5706 24.16 65.3026 24.36 66.1426 24.36ZM76.9484 9.648H88.7564L88.7444 12.576H80.4764V16.932H87.6404V19.8H80.4764V27H76.9484V9.648ZM91.4271 9.648H94.9551V24.036H102.491V27H91.4271V9.648ZM111.782 27.24C110.142 27.24 108.722 26.884 107.522 26.172C106.33 25.452 105.406 24.432 104.75 23.112C104.102 21.784 103.778 20.2 103.778 18.36C103.778 16.512 104.106 14.92 104.762 13.584C105.426 12.248 106.358 11.22 107.558 10.5C108.758 9.772 110.166 9.408 111.782 9.408C113.39 9.408 114.79 9.768 115.982 10.488C117.174 11.208 118.094 12.236 118.742 13.572C119.398 14.908 119.726 16.504 119.726 18.36C119.726 20.192 119.402 21.772 118.754 23.1C118.114 24.428 117.198 25.452 116.006 26.172C114.814 26.884 113.406 27.24 111.782 27.24ZM111.782 24.36C112.63 24.36 113.362 24.16 113.978 23.76C114.602 23.352 115.082 22.712 115.418 21.84C115.754 20.96 115.922 19.816 115.922 18.408C115.922 16.96 115.75 15.788 115.406 14.892C115.07 13.996 114.59 13.34 113.966 12.924C113.35 12.5 112.622 12.288 111.782 12.288C110.942 12.288 110.21 12.5 109.586 12.924C108.962 13.34 108.478 14 108.134 14.904C107.79 15.8 107.618 16.968 107.618 18.408C107.618 19.824 107.79 20.968 108.134 21.84C108.478 22.712 108.962 23.352 109.586 23.76C110.21 24.16 110.942 24.36 111.782 24.36ZM142.94 9.648L137.816 27H135.02L131.756 15.66L128.468 27H125.72L120.608 9.648H124.04L127.268 21.108L130.496 9.648H133.028L136.292 21.108L139.52 9.648H142.94Z" fill="#202430"/>
<defs>
<clipPath id="clip0_581_2210">
<rect width="32" height="32" fill="white" transform="translate(0 2)"/>
</clipPath>
</defs>
</svg>
